# Blender 4.0.2
# www.blender.org
mtllib arrow.mtl
o å¹³é¢
v -4.491966 0.500000 -2.172852
v -4.491965 -0.500000 -2.172851
v -4.961959 0.000000 -2.864789
v -4.659807 0.333334 -2.395773
v -4.816595 0.166667 -2.626601
v -4.659807 -0.333333 -2.395772
v -4.816595 -0.166667 -2.626601
v -4.659807 0.000000 -2.395772
v -4.491965 0.000000 -2.172851
v -4.816595 0.000000 -2.626601
v 4.961960 0.250000 -2.864789
v -2.046782 0.250000 -0.378060
v -3.276819 0.250000 -1.029523
v 4.491965 0.250000 -2.172851
v -4.313470 0.250000 -1.958366
v 3.501767 0.250000 -1.194637
v 2.304907 0.250000 -0.484059
v 0.972020 0.250000 -0.083053
v -0.418233 0.250000 -0.015285
v -1.783803 0.250000 -0.284754
v -3.044099 0.250000 -0.875557
v 4.659807 0.250000 -2.395772
v -4.124743 0.250000 -1.752826
v 3.718409 0.250000 -1.370508
v 2.557565 0.250000 -0.602500
v 1.245783 0.250000 -0.137075
v -0.139521 0.250000 -0.001699
v -1.516592 0.250000 -0.204362
v -2.804158 0.250000 -0.733103
v 4.816596 0.250000 -2.626601
v -3.926233 0.250000 -1.556718
v 3.926233 0.250000 -1.556718
v 2.804157 0.250000 -0.733103
v 1.516591 0.250000 -0.204362
v 0.139521 0.250000 -0.001699
v -1.245783 0.250000 -0.137075
v -2.557566 0.250000 -0.602501
v -3.718410 0.250000 -1.370508
v 4.124743 0.250000 -1.752825
v 3.044098 0.250000 -0.875556
v 1.783802 0.250000 -0.284753
v 0.418232 0.250000 -0.015285
v -0.972020 0.250000 -0.083053
v -2.304908 0.250000 -0.484060
v -3.501767 0.250000 -1.194637
v 4.313469 0.250000 -1.958366
v -4.491966 0.250000 -2.172852
v 3.276819 0.250000 -1.029522
v 2.046782 0.250000 -0.378059
v 0.695951 0.250000 -0.042424
v -0.695952 0.250000 -0.042424
v 3.926233 -0.250000 -1.556718
v -0.139521 -0.250000 -0.001699
v 4.659807 -0.250000 -2.395772
v 2.304908 -0.250000 -0.484059
v 3.276819 -0.250000 -1.029522
v -2.046782 -0.250000 -0.378060
v -0.972020 -0.250000 -0.083053
v -3.718409 -0.250000 -1.370508
v 2.804158 -0.250000 -0.733103
v -1.516591 -0.250000 -0.204362
v -4.124743 -0.250000 -1.752826
v 0.972020 -0.250000 -0.083053
v 2.046782 -0.250000 -0.378060
v -3.276819 -0.250000 -1.029522
v -2.304907 -0.250000 -0.484059
v 4.124743 -0.250000 -1.752826
v 1.516591 -0.250000 -0.204362
v -2.804157 -0.250000 -0.733103
v 3.718410 -0.250000 -1.370508
v -0.418232 -0.250000 -0.015285
v 0.695952 -0.250000 -0.042424
v 4.491965 -0.250000 -2.172851
v -3.501767 -0.250000 -1.194637
v 3.044099 -0.250000 -0.875556
v 0.139521 -0.250000 -0.001699
v 4.816596 -0.250000 -2.626601
v 2.557566 -0.250000 -0.602501
v -1.783802 -0.250000 -0.284753
v -0.695951 -0.250000 -0.042424
v -4.313470 -0.250000 -1.958366
v 4.313470 -0.250000 -1.958366
v 1.783803 -0.250000 -0.284754
v -1.245783 -0.250000 -0.137075
v -3.926233 -0.250000 -1.556718
v 1.245783 -0.250000 -0.137075
v -3.044098 -0.250000 -0.875556
v 3.501767 -0.250000 -1.194637
v 4.961960 -0.250000 -2.864789
v 0.418233 -0.250000 -0.015285
v -4.491965 -0.250000 -2.172851
v -2.557565 -0.250000 -0.602501
v 4.816596 -0.000000 -2.626601
vn -0.8272 -0.0000 0.5619
vn -0.7989 -0.0000 0.6015
vn -0.8536 -0.0000 0.5209
vn -0.7686 -0.0000 0.6397
vn -0.5518 -0.0000 0.8340
vn -0.2881 -0.0000 0.9576
vn -0.0000 -0.0000 1.0000
vn 0.2881 -0.0000 0.9576
vn 0.5518 -0.0000 0.8340
vn 0.7686 -0.0000 0.6397
vn -0.5917 -0.0000 0.8061
vn -0.3344 -0.0000 0.9424
vn -0.0487 -0.0000 0.9988
vn 0.2411 -0.0000 0.9705
vn 0.5105 -0.0000 0.8599
vn 0.7366 -0.0000 0.6763
vn -0.6303 -0.0000 0.7764
vn -0.3799 -0.0000 0.9250
vn -0.0973 -0.0000 0.9953
vn 0.1936 -0.0000 0.9811
vn 0.4680 -0.0000 0.8837
vn 0.7028 -0.0000 0.7114
vn -0.6673 -0.0000 0.7448
vn -0.4245 -0.0000 0.9054
vn -0.1456 -0.0000 0.9893
vn 0.1456 -0.0000 0.9893
vn 0.4245 -0.0000 0.9054
vn 0.6673 -0.0000 0.7448
vn 0.8536 -0.0000 0.5209
vn -0.7028 -0.0000 0.7114
vn -0.4680 -0.0000 0.8837
vn -0.1936 -0.0000 0.9811
vn 0.0973 -0.0000 0.9953
vn 0.3799 -0.0000 0.9250
vn 0.6303 -0.0000 0.7764
vn 0.8272 -0.0000 0.5619
vn -0.7366 -0.0000 0.6763
vn -0.5105 -0.0000 0.8599
vn -0.2411 -0.0000 0.9705
vn 0.0487 -0.0000 0.9988
vn 0.3344 -0.0000 0.9424
vn 0.5917 -0.0000 0.8061
vn 0.7989 -0.0000 0.6015
vt 0.000000 0.000000
vt 0.250000 0.069767
vt 0.750000 0.069767
vt 0.500000 0.069767
vt 0.250000 0.093023
vt 0.750000 0.093023
vt 0.250000 0.232558
vt 0.250000 0.209302
vt 0.750000 0.209302
vt 0.750000 0.232558
vt 0.250000 0.372093
vt 0.250000 0.348837
vt 0.750000 0.348837
vt 0.750000 0.372093
vt 0.250000 0.511628
vt 0.250000 0.488372
vt 0.750000 0.488372
vt 0.750000 0.511628
vt 0.250000 0.651163
vt 0.250000 0.627907
vt 0.750000 0.627907
vt 0.750000 0.651163
vt 0.250000 0.790698
vt 0.250000 0.767442
vt 0.750000 0.767442
vt 0.750000 0.790698
vt 0.250000 0.930233
vt 0.250000 0.906977
vt 0.750000 0.906977
vt 0.750000 0.930233
vt 0.250000 0.186046
vt 0.750000 0.186046
vt 0.250000 0.325581
vt 0.750000 0.325581
vt 0.250000 0.465116
vt 0.750000 0.465116
vt 0.250000 0.604651
vt 0.750000 0.604651
vt 0.250000 0.744186
vt 0.750000 0.744186
vt 0.250000 0.883721
vt 0.750000 0.883721
vt 0.250000 0.162791
vt 0.750000 0.162791
vt 0.250000 0.302326
vt 0.750000 0.302326
vt 0.250000 0.441860
vt 0.750000 0.441860
vt 0.250000 0.581395
vt 0.750000 0.581395
vt 0.250000 0.720930
vt 0.750000 0.720930
vt 0.250000 0.860465
vt 0.750000 0.860465
vt 0.250000 0.139535
vt 0.750000 0.139535
vt 0.250000 0.279070
vt 0.750000 0.279070
vt 0.250000 0.418605
vt 0.750000 0.418605
vt 0.250000 0.558140
vt 0.750000 0.558140
vt 0.250000 0.697674
vt 0.750000 0.697674
vt 0.250000 0.837209
vt 0.750000 0.837209
vt 0.250000 1.000000
vt 0.250000 0.976744
vt 0.500000 0.976744
vt 0.250000 0.116279
vt 0.750000 0.116279
vt 0.250000 0.255814
vt 0.750000 0.255814
vt 0.250000 0.395349
vt 0.750000 0.395349
vt 0.250000 0.534884
vt 0.750000 0.534884
vt 0.250000 0.674419
vt 0.750000 0.674419
vt 0.250000 0.813954
vt 0.750000 0.813954
vt 0.250000 0.953488
vt 0.750000 0.953488
vt 0.750000 0.976744
vt 0.750000 1.000000
s 0
f 5/1/1 10/1/1 7/1/1 6/1/1 8/1/1 4/1/1
f 47/2/2 1/1/2 4/1/2 8/1/2 6/1/2 2/1/2 91/3/2 9/4/2
f 10/1/3 5/1/3 3/1/3 7/1/3
f 15/5/4 47/2/4 9/4/4 91/3/4 81/6/4
f 21/7/5 13/8/5 65/9/5 87/10/5
f 28/11/6 20/12/6 79/13/6 61/14/6
f 35/15/7 27/16/7 53/17/7 76/18/7
f 41/19/8 34/20/8 68/21/8 83/22/8
f 48/23/9 40/24/9 75/25/9 56/26/9
f 14/27/10 46/28/10 82/29/10 73/30/10
f 13/8/11 45/31/11 74/32/11 65/9/11
f 20/12/12 12/33/12 57/34/12 79/13/12
f 27/16/13 19/35/13 71/36/13 53/17/13
f 34/20/14 26/37/14 86/38/14 68/21/14
f 40/24/15 33/39/15 60/40/15 75/25/15
f 46/28/16 39/41/16 67/42/16 82/29/16
f 45/31/17 38/43/17 59/44/17 74/32/17
f 12/33/18 44/45/18 66/46/18 57/34/18
f 19/35/19 51/47/19 80/48/19 71/36/19
f 26/37/20 18/49/20 63/50/20 86/38/20
f 33/39/21 25/51/21 78/52/21 60/40/21
f 39/41/22 32/53/22 52/54/22 67/42/22
f 38/43/23 31/55/23 85/56/23 59/44/23
f 44/45/24 37/57/24 92/58/24 66/46/24
f 51/47/25 43/59/25 58/60/25 80/48/25
f 18/49/26 50/61/26 72/62/26 63/50/26
f 25/51/27 17/63/27 55/64/27 78/52/27
f 32/53/28 24/65/28 70/66/28 52/54/28
f 11/67/29 30/68/29 93/69/29
f 31/55/30 23/70/30 62/71/30 85/56/30
f 37/57/31 29/72/31 69/73/31 92/58/31
f 43/59/32 36/74/32 84/75/32 58/60/32
f 50/61/33 42/76/33 90/77/33 72/62/33
f 17/63/34 49/78/34 64/79/34 55/64/34
f 24/65/35 16/80/35 88/81/35 70/66/35
f 30/68/36 22/82/36 54/83/36 77/84/36 93/69/36
f 23/70/37 15/5/37 81/6/37 62/71/37
f 29/72/38 21/7/38 87/10/38 69/73/38
f 36/74/39 28/11/39 61/14/39 84/75/39
f 42/76/40 35/15/40 76/18/40 90/77/40
f 49/78/41 41/19/41 83/22/41 64/79/41
f 16/80/42 48/23/42 56/26/42 88/81/42
f 22/82/43 14/27/43 73/30/43 54/83/43
f 93/69/29 77/84/29 89/85/29
